<!--?xml version="1.0" standalone="no"?-->              <svg id="sw-js-blob-svg" viewBox="0 0 100 100" xmlns="http://www.w3.org/2000/svg">                    <defs>                         <linearGradient id="sw-gradient" x1="0" x2="1" y1="1" y2="0">                            <stop id="stop1" stop-color="rgba(226.524, 226.576, 190.039, 1)" offset="0%"></stop>                            <stop id="stop2" stop-color="rgba(255, 255, 255, 1)" offset="100%"></stop>                        </linearGradient>                    </defs>                <path fill="url(#sw-gradient)" d="M22.2,-39.1C28.9,-34.7,34.4,-28.9,37.6,-22.1C40.9,-15.4,41.8,-7.7,41.2,-0.3C40.6,7,38.5,14,35.5,21.2C32.5,28.3,28.7,35.7,22.6,39.6C16.6,43.5,8.3,43.9,0.7,42.6C-6.8,41.3,-13.6,38.3,-19.9,34.6C-26.2,30.8,-31.9,26.3,-35.4,20.4C-38.9,14.5,-40.2,7.3,-40.4,-0.1C-40.6,-7.5,-39.8,-15,-36.2,-20.7C-32.6,-26.4,-26.1,-30.2,-19.6,-34.7C-13.1,-39.2,-6.5,-44.3,0.6,-45.4C7.8,-46.5,15.6,-43.5,22.2,-39.1Z" width="100%" height="100%" transform="translate(50 50)" stroke-width="0" style="transition: 0.3s;"></path>              </svg>